<mxfile host="app.diagrams.net" modified="2021-08-12T23:18:12.248Z" agent="5.0 (Windows NT 10.0; Win64; x64) AppleWebKit/537.36 (KHTML, like Gecko) Chrome/92.0.4515.131 Safari/537.36" etag="NPj6n4wj1J4v_ZCzaiDc" version="14.9.6" type="github">
  <diagram name="Page-1" id="e7e014a7-5840-1c2e-5031-d8a46d1fe8dd">
    <mxGraphModel dx="1038" dy="600" grid="1" gridSize="10" guides="1" tooltips="1" connect="1" arrows="1" fold="1" page="1" pageScale="1" pageWidth="1169" pageHeight="826" background="none" math="0" shadow="0">
      <root>
        <mxCell id="0" />
        <mxCell id="1" parent="0" />
        <mxCell id="2" value="user" style="swimlane;whiteSpace=wrap" parent="1" vertex="1">
          <mxGeometry x="164.5" y="128" width="280" height="570" as="geometry" />
        </mxCell>
        <mxCell id="5" value="" style="ellipse;shape=startState;fillColor=#000000;strokeColor=#ff0000;" parent="2" vertex="1">
          <mxGeometry x="100" y="40" width="30" height="30" as="geometry" />
        </mxCell>
        <mxCell id="6" value="" style="edgeStyle=elbowEdgeStyle;elbow=horizontal;verticalAlign=bottom;endArrow=open;endSize=8;strokeColor=#FF0000;endFill=1;rounded=0" parent="2" source="5" target="7" edge="1">
          <mxGeometry x="100" y="40" as="geometry">
            <mxPoint x="115" y="110" as="targetPoint" />
          </mxGeometry>
        </mxCell>
        <mxCell id="7" value="register" style="" parent="2" vertex="1">
          <mxGeometry x="60" y="110" width="110" height="50" as="geometry" />
        </mxCell>
        <mxCell id="8" value="game site" style="" parent="2" vertex="1">
          <mxGeometry x="60" y="220" width="110" height="50" as="geometry" />
        </mxCell>
        <mxCell id="9" value="" style="endArrow=open;strokeColor=#FF0000;endFill=1;rounded=0" parent="2" source="7" target="8" edge="1">
          <mxGeometry relative="1" as="geometry" />
        </mxCell>
        <mxCell id="10" value="play game" style="" parent="2" vertex="1">
          <mxGeometry x="60" y="325" width="110" height="50" as="geometry" />
        </mxCell>
        <mxCell id="11" value="" style="endArrow=open;strokeColor=#FF0000;endFill=1;rounded=0" parent="2" source="8" target="10" edge="1">
          <mxGeometry relative="1" as="geometry" />
        </mxCell>
        <mxCell id="12" value="" style="edgeStyle=elbowEdgeStyle;elbow=horizontal;strokeColor=#FF0000;endArrow=open;endFill=1;rounded=0" parent="2" source="10" target="7" edge="1">
          <mxGeometry width="100" height="100" relative="1" as="geometry">
            <mxPoint x="160" y="290" as="sourcePoint" />
            <mxPoint x="260" y="190" as="targetPoint" />
            <Array as="points">
              <mxPoint x="30" y="250" />
            </Array>
          </mxGeometry>
        </mxCell>
        <mxCell id="RPenKIVFC2AOVS8Rnt-N-41" value="user start&lt;br&gt;" style="text;html=1;align=center;verticalAlign=middle;resizable=0;points=[];autosize=1;strokeColor=none;" vertex="1" parent="2">
          <mxGeometry x="125.5" y="40" width="70" height="20" as="geometry" />
        </mxCell>
        <mxCell id="3" value="system" style="swimlane;whiteSpace=wrap" parent="1" vertex="1">
          <mxGeometry x="444.5" y="130" width="215.5" height="568" as="geometry" />
        </mxCell>
        <mxCell id="13" value="" style="ellipse;shape=startState;fillColor=#000000;strokeColor=#ff0000;" parent="3" vertex="1">
          <mxGeometry x="60" y="40" width="30" height="30" as="geometry" />
        </mxCell>
        <mxCell id="14" value="" style="edgeStyle=elbowEdgeStyle;elbow=horizontal;verticalAlign=bottom;endArrow=open;endSize=8;strokeColor=#FF0000;endFill=1;rounded=0" parent="3" source="13" target="15" edge="1">
          <mxGeometry x="40" y="20" as="geometry">
            <mxPoint x="55" y="90" as="targetPoint" />
          </mxGeometry>
        </mxCell>
        <mxCell id="15" value="username / password/&#xa;- id / wallet" style="" parent="3" vertex="1">
          <mxGeometry y="110" width="130" height="50" as="geometry" />
        </mxCell>
        <mxCell id="16" value="tokens &amp; wallet" style="" parent="3" vertex="1">
          <mxGeometry x="20" y="220" width="110" height="50" as="geometry" />
        </mxCell>
        <mxCell id="17" value="" style="endArrow=open;strokeColor=#FF0000;endFill=1;rounded=0" parent="3" source="15" target="16" edge="1">
          <mxGeometry relative="1" as="geometry" />
        </mxCell>
        <mxCell id="18" value="update walletÂ " style="" parent="3" vertex="1">
          <mxGeometry x="20" y="325" width="110" height="50" as="geometry" />
        </mxCell>
        <mxCell id="19" value="" style="endArrow=open;strokeColor=#FF0000;endFill=1;rounded=0" parent="3" source="16" target="18" edge="1">
          <mxGeometry relative="1" as="geometry" />
        </mxCell>
        <mxCell id="24" value="" style="endArrow=open;strokeColor=#FF0000;endFill=1;rounded=0" parent="3" source="16" edge="1">
          <mxGeometry relative="1" as="geometry">
            <mxPoint x="150" y="245" as="targetPoint" />
          </mxGeometry>
        </mxCell>
        <mxCell id="20" value="" style="endArrow=open;strokeColor=#FF0000;endFill=1;rounded=0" parent="1" source="10" target="18" edge="1">
          <mxGeometry relative="1" as="geometry" />
        </mxCell>
        <mxCell id="RPenKIVFC2AOVS8Rnt-N-44" value="&lt;ol&gt;&lt;li&gt;1). Seth going to show game&lt;/li&gt;&lt;li style=&quot;text-align: left&quot;&gt;git hub directory - pat&lt;/li&gt;&lt;li style=&quot;text-align: left&quot;&gt;a) on GitHub pat make a new repository&lt;/li&gt;&lt;li style=&quot;text-align: left&quot;&gt;b)all on GitHub&lt;/li&gt;&lt;li style=&quot;text-align: left&quot;&gt;import packages&lt;/li&gt;&lt;li style=&quot;text-align: left&quot;&gt;make classes (username, password, id, wallet.)&lt;/li&gt;&lt;li style=&quot;text-align: left&quot;&gt;methods (post (username &amp;amp; password), get, put wallet)&lt;/li&gt;&lt;li style=&quot;text-align: left&quot;&gt;end points&amp;nbsp;&amp;nbsp;&lt;/li&gt;&lt;li style=&quot;text-align: left&quot;&gt;embed styles (front-end)&lt;/li&gt;&lt;/ol&gt;&lt;span&gt;front end&amp;nbsp; 1).html. 2)styles(CSS). 3). JavaScript.&amp;nbsp;&amp;nbsp;&lt;br&gt;&lt;br&gt;&lt;br&gt;&lt;ol&gt;&lt;li style=&quot;text-align: left&quot;&gt;Seth is on Javascript &amp;amp; game develpoment&lt;/li&gt;&lt;li style=&quot;text-align: left&quot;&gt;patrick is the helping eveyone&lt;/li&gt;&lt;li style=&quot;text-align: left&quot;&gt;Courtney is doing the api&lt;/li&gt;&lt;li style=&quot;text-align: left&quot;&gt;tobias is doing nothing lol&lt;/li&gt;&lt;/ol&gt;&lt;/span&gt;" style="rounded=0;whiteSpace=wrap;html=1;" vertex="1" parent="1">
          <mxGeometry x="680" y="100" width="750" height="370" as="geometry" />
        </mxCell>
        <mxCell id="RPenKIVFC2AOVS8Rnt-N-52" style="edgeStyle=orthogonalEdgeStyle;rounded=0;orthogonalLoop=1;jettySize=auto;html=1;exitX=0;exitY=0.3333333333333333;exitDx=0;exitDy=0;exitPerimeter=0;" edge="1" parent="1" source="RPenKIVFC2AOVS8Rnt-N-45">
          <mxGeometry relative="1" as="geometry">
            <mxPoint x="1230" y="50" as="targetPoint" />
            <Array as="points">
              <mxPoint x="1250" y="60" />
              <mxPoint x="1250" y="50" />
              <mxPoint x="1230" y="50" />
            </Array>
          </mxGeometry>
        </mxCell>
        <mxCell id="RPenKIVFC2AOVS8Rnt-N-45" value="Actor" style="shape=umlActor;verticalLabelPosition=bottom;verticalAlign=top;html=1;outlineConnect=0;" vertex="1" parent="1">
          <mxGeometry x="1270" y="40" width="30" height="60" as="geometry" />
        </mxCell>
        <mxCell id="RPenKIVFC2AOVS8Rnt-N-51" style="edgeStyle=orthogonalEdgeStyle;rounded=0;orthogonalLoop=1;jettySize=auto;html=1;" edge="1" parent="1" source="RPenKIVFC2AOVS8Rnt-N-47">
          <mxGeometry relative="1" as="geometry">
            <mxPoint x="950" y="50" as="targetPoint" />
            <Array as="points">
              <mxPoint x="930" y="60" />
              <mxPoint x="930" y="50" />
            </Array>
          </mxGeometry>
        </mxCell>
        <mxCell id="RPenKIVFC2AOVS8Rnt-N-47" value="Actor" style="shape=umlActor;verticalLabelPosition=bottom;verticalAlign=top;html=1;outlineConnect=0;" vertex="1" parent="1">
          <mxGeometry x="880" y="40" width="30" height="60" as="geometry" />
        </mxCell>
        <mxCell id="RPenKIVFC2AOVS8Rnt-N-53" value="*" style="text;html=1;align=center;verticalAlign=middle;resizable=0;points=[];autosize=1;strokeColor=none;" vertex="1" parent="1">
          <mxGeometry x="1200" y="40" width="20" height="20" as="geometry" />
        </mxCell>
      </root>
    </mxGraphModel>
  </diagram>
</mxfile>
